<svg width="296" height="32" viewBox="0 0 296 32" fill="none" xmlns="http://www.w3.org/2000/svg">
<line x1="4.37114e-08" y1="31.5" x2="296" y2="31.5" stroke="#5E49FF"/>
<path d="M35.822 17.14C37.838 17.14 39.14 16.09 39.14 14.508C39.14 10.882 34.044 12.002 34.044 9.538C34.044 8.74 34.688 8.166 35.864 8.166C36.9 8.166 37.558 8.614 37.852 9.594L38.986 9.16C38.622 7.9 37.544 7.13 35.906 7.13C34.002 7.13 32.854 8.166 32.854 9.65C32.854 13.01 37.936 11.946 37.936 14.55C37.936 15.502 37.152 16.09 35.906 16.09C34.674 16.09 33.82 15.474 33.54 14.396L32.406 14.83C32.826 16.3 34.072 17.14 35.822 17.14ZM41.5446 13.752H47.6766C47.6906 13.612 47.7046 13.36 47.7046 13.15C47.7046 11.204 46.2906 9.454 44.0646 9.454C41.9786 9.454 40.3406 11.176 40.3406 13.318C40.3406 15.516 41.8806 17.168 44.1486 17.168C45.8986 17.168 46.9206 16.412 47.4666 15.362L46.4306 14.732C46.0666 15.586 45.3946 16.048 44.1906 16.048C42.8326 16.048 41.7546 15.124 41.5446 13.752ZM41.5586 12.716C41.7826 11.316 42.8606 10.49 44.1066 10.49C45.3386 10.49 46.3046 11.33 46.4866 12.716H41.5586ZM52.9791 9.468C51.8031 9.468 50.9071 10 50.4311 10.7V9.622H49.3111V17H50.5011V12.436C50.5151 11.442 51.4111 10.532 52.6711 10.532C53.9871 10.518 54.7851 11.33 54.7851 12.702V17H55.9751V12.492C55.9751 10.658 54.8691 9.468 52.9791 9.468ZM61.6777 9.468C60.5577 9.468 59.6897 9.958 59.1997 10.602V6.766H58.0097V17H59.1997V12.436C59.2137 11.442 60.1097 10.532 61.3697 10.532C62.6857 10.518 63.4837 11.33 63.4837 12.702V17H64.6737V12.492C64.6737 10.658 63.5677 9.468 61.6777 9.468ZM72.6583 9.622V11.05C72.0983 10.098 71.1323 9.538 69.8863 9.538C67.8003 9.538 66.2603 11.12 66.2603 13.304C66.2603 15.516 67.7863 17.154 69.8863 17.154C71.1323 17.154 72.0983 16.566 72.6583 15.586V17H73.7643V9.622H72.6583ZM70.0263 16.104C68.5423 16.104 67.4363 14.914 67.4363 13.304C67.4363 11.722 68.5423 10.518 70.0263 10.518C71.5663 10.518 72.6163 11.666 72.6163 13.304C72.6163 14.956 71.5523 16.104 70.0263 16.104Z" fill="#7C7786"/>
<path d="M13.125 2.75C16.2109 2.75 18.75 5.28906 18.75 8.375C18.75 11.5 16.2109 14 13.125 14C12.3828 14 11.6406 13.8828 11.0156 13.6094L9.375 15.25H7.5V17.75H5V20.25H1.25V17.125L7.89062 10.4844C7.61719 9.85938 7.5 9.11719 7.5 8.375C7.5 5.28906 10 2.75 13.125 2.75ZM13.125 1.5C9.29688 1.5 6.25 4.58594 6.25 8.375C6.25 9 6.28906 9.58594 6.44531 10.1328L0.273438 16.3438C0.117188 16.5 0 16.8125 0 17.0078V20.5625C0 21.1094 0.390625 21.5 0.9375 21.5H5.3125C5.82031 21.5 6.25 21.1094 6.25 20.5625V19H7.8125C8.32031 19 8.75 18.6094 8.75 18.0625V16.5H9.49219C9.72656 16.5 9.96094 16.4219 10.1562 16.2266L11.3672 15.0547C11.9141 15.2109 12.5 15.25 13.125 15.25C16.9141 15.25 20 12.2031 20 8.375C20 4.58594 16.9141 1.5 13.125 1.5ZM15 5.71875C15.4297 5.71875 15.7812 6.07031 15.7812 6.5C15.7812 6.96875 15.4297 7.28125 15 7.28125C14.5312 7.28125 14.2188 6.96875 14.2188 6.5C14.2188 6.07031 14.5312 5.71875 15 5.71875ZM15 4.625C13.9453 4.625 13.125 5.48438 13.125 6.5C13.125 7.55469 13.9453 8.375 15 8.375C16.0156 8.375 16.875 7.55469 16.875 6.5C16.875 5.48438 16.0156 4.625 15 4.625Z" fill="#5E49FF"/>
</svg>
